<mxfile host="app.diagrams.net" modified="2023-04-06T15:53:27.275Z" agent="Mozilla/5.0 (Macintosh; Intel Mac OS X 10_15_7) AppleWebKit/605.1.15 (KHTML, like Gecko) Version/15.6 Safari/605.1.15" etag="ary8-vqsrftwbI5utLLs" version="21.1.4" type="github">
  <diagram name="Page-1" id="e6-palL22gEVwpT9Rw4-">
    <mxGraphModel dx="794" dy="547" grid="1" gridSize="10" guides="1" tooltips="1" connect="1" arrows="1" fold="1" page="1" pageScale="1" pageWidth="827" pageHeight="1169" math="0" shadow="0">
      <root>
        <mxCell id="0" />
        <mxCell id="1" parent="0" />
        <mxCell id="x3_pzE6pRAHvsMxL7w2M-4" style="edgeStyle=orthogonalEdgeStyle;rounded=0;orthogonalLoop=1;jettySize=auto;html=1;exitX=0.5;exitY=1;exitDx=0;exitDy=0;entryX=0;entryY=0.5;entryDx=0;entryDy=0;strokeWidth=3;" edge="1" parent="1" source="x3_pzE6pRAHvsMxL7w2M-1" target="x3_pzE6pRAHvsMxL7w2M-3">
          <mxGeometry relative="1" as="geometry">
            <Array as="points">
              <mxPoint x="180" y="420" />
            </Array>
          </mxGeometry>
        </mxCell>
        <mxCell id="x3_pzE6pRAHvsMxL7w2M-1" value="Threat models&lt;br&gt;" style="whiteSpace=wrap;html=1;aspect=fixed;fillColor=#E6FFCC;fontStyle=1" vertex="1" parent="1">
          <mxGeometry x="140" y="250" width="80" height="80" as="geometry" />
        </mxCell>
        <mxCell id="x3_pzE6pRAHvsMxL7w2M-10" style="edgeStyle=orthogonalEdgeStyle;rounded=0;orthogonalLoop=1;jettySize=auto;html=1;exitX=0.5;exitY=0;exitDx=0;exitDy=0;entryX=0.5;entryY=0;entryDx=0;entryDy=0;" edge="1" parent="1" source="x3_pzE6pRAHvsMxL7w2M-2" target="x3_pzE6pRAHvsMxL7w2M-6">
          <mxGeometry relative="1" as="geometry">
            <mxPoint x="500" y="210" as="targetPoint" />
          </mxGeometry>
        </mxCell>
        <mxCell id="x3_pzE6pRAHvsMxL7w2M-12" style="edgeStyle=orthogonalEdgeStyle;rounded=0;orthogonalLoop=1;jettySize=auto;html=1;exitX=0.5;exitY=1;exitDx=0;exitDy=0;entryX=0.5;entryY=1;entryDx=0;entryDy=0;" edge="1" parent="1" source="x3_pzE6pRAHvsMxL7w2M-2" target="x3_pzE6pRAHvsMxL7w2M-8">
          <mxGeometry relative="1" as="geometry" />
        </mxCell>
        <mxCell id="x3_pzE6pRAHvsMxL7w2M-16" style="edgeStyle=orthogonalEdgeStyle;rounded=0;orthogonalLoop=1;jettySize=auto;html=1;exitX=1;exitY=0.5;exitDx=0;exitDy=0;" edge="1" parent="1" source="x3_pzE6pRAHvsMxL7w2M-2">
          <mxGeometry relative="1" as="geometry">
            <mxPoint x="420" y="350" as="targetPoint" />
          </mxGeometry>
        </mxCell>
        <mxCell id="x3_pzE6pRAHvsMxL7w2M-2" value="security games/&lt;br&gt;experiments" style="whiteSpace=wrap;html=1;aspect=fixed;fillColor=#e1d5e7;strokeColor=#9673a6;fontStyle=1" vertex="1" parent="1">
          <mxGeometry x="290" y="300" width="100" height="100" as="geometry" />
        </mxCell>
        <mxCell id="x3_pzE6pRAHvsMxL7w2M-5" style="edgeStyle=orthogonalEdgeStyle;rounded=0;orthogonalLoop=1;jettySize=auto;html=1;exitX=0.5;exitY=1;exitDx=0;exitDy=0;strokeWidth=3;entryX=0;entryY=0.5;entryDx=0;entryDy=0;" edge="1" parent="1" source="x3_pzE6pRAHvsMxL7w2M-3" target="x3_pzE6pRAHvsMxL7w2M-2">
          <mxGeometry relative="1" as="geometry">
            <mxPoint x="400" y="400" as="sourcePoint" />
          </mxGeometry>
        </mxCell>
        <mxCell id="x3_pzE6pRAHvsMxL7w2M-3" value="security goals" style="whiteSpace=wrap;html=1;aspect=fixed;fillColor=#99FFFF;fontStyle=1" vertex="1" parent="1">
          <mxGeometry x="140" y="380" width="80" height="80" as="geometry" />
        </mxCell>
        <mxCell id="x3_pzE6pRAHvsMxL7w2M-6" value="Adversary&#39;s behaviours&amp;nbsp;" style="text;html=1;strokeColor=none;fillColor=none;align=center;verticalAlign=middle;whiteSpace=wrap;rounded=0;fontStyle=1" vertex="1" parent="1">
          <mxGeometry x="398" y="300" width="155" height="30" as="geometry" />
        </mxCell>
        <mxCell id="x3_pzE6pRAHvsMxL7w2M-7" value="System&#39;s reactions: &lt;span&gt;Challenger&lt;/span&gt;&lt;br&gt;&amp;nbsp;" style="text;html=1;strokeColor=none;fillColor=none;align=center;verticalAlign=middle;whiteSpace=wrap;rounded=0;fontStyle=1" vertex="1" parent="1">
          <mxGeometry x="398" y="340" width="234" height="30" as="geometry" />
        </mxCell>
        <mxCell id="x3_pzE6pRAHvsMxL7w2M-8" value="Winning conditions" style="text;html=1;strokeColor=none;fillColor=none;align=center;verticalAlign=middle;whiteSpace=wrap;rounded=0;fontStyle=1" vertex="1" parent="1">
          <mxGeometry x="410.5" y="390" width="130" height="30" as="geometry" />
        </mxCell>
        <mxCell id="x3_pzE6pRAHvsMxL7w2M-19" style="edgeStyle=orthogonalEdgeStyle;rounded=0;orthogonalLoop=1;jettySize=auto;html=1;entryX=0.5;entryY=0;entryDx=0;entryDy=0;strokeWidth=3;" edge="1" parent="1" source="x3_pzE6pRAHvsMxL7w2M-17" target="x3_pzE6pRAHvsMxL7w2M-1">
          <mxGeometry relative="1" as="geometry" />
        </mxCell>
        <mxCell id="x3_pzE6pRAHvsMxL7w2M-17" value="Cryptographic primitives" style="ellipse;whiteSpace=wrap;html=1;aspect=fixed;fontStyle=1;fillColor=#fff2cc;strokeColor=#d6b656;" vertex="1" parent="1">
          <mxGeometry x="270" y="160" width="80" height="80" as="geometry" />
        </mxCell>
      </root>
    </mxGraphModel>
  </diagram>
</mxfile>
